<svg width="17" height="20" viewBox="0 0 17 20" fill="none" xmlns="http://www.w3.org/2000/svg">
<g clip-path="url(#clip0_17_40)">
<path d="M8.5003 18.75C9.17044 18.75 9.71459 18.1883 9.71459 17.4988H10.9289C10.9289 18.8781 9.83905 20 8.5003 20C7.16155 20 6.07173 18.8781 6.07173 17.4988H7.28602C7.28602 18.1883 7.83017 18.75 8.5003 18.75ZM0.555079 13.0785C1.61606 12.0387 2.42735 10.9504 2.42735 7.26172C2.42735 4.15273 4.83278 1.61719 7.89316 1.31055V0.625C7.89316 0.279687 8.16486 0 8.5003 0C8.83575 0 9.10745 0.279687 9.10745 0.625V1.31094C12.1678 1.61758 14.5733 4.15273 14.5733 7.26172C14.5733 10.95 15.3849 12.0387 16.4459 13.0785C16.976 13.598 17.1434 14.3836 16.8728 15.0797C16.5966 15.7906 15.9317 16.25 15.1789 16.25H1.82173C1.06887 16.25 0.404051 15.7902 0.1278 15.0793C-0.142757 14.3832 0.0249653 13.598 0.555079 13.0785ZM1.82173 15H15.1789C15.7189 15 15.9887 14.3566 15.6084 13.984C14.2856 12.6875 13.359 11.2363 13.359 7.26211C13.359 4.63008 11.1858 2.5 8.5003 2.5C5.81521 2.5 3.64164 4.62969 3.64164 7.26172C3.64164 11.2207 2.72296 12.6797 1.39218 13.9836C1.01044 14.3582 1.28403 15 1.82173 15Z" fill="#C4C4C4"/>
</g>
<defs>
<clipPath id="clip0_17_40">
<rect width="17" height="20" fill="white" transform="matrix(-1 0 0 1 17 0)"/>
</clipPath>
</defs>
</svg>
