<svg width="15" height="17" viewBox="0 0 15 17" fill="none" xmlns="http://www.w3.org/2000/svg">
<path d="M8.84933 8.32402L6.43862 7.65332C6.03348 7.54043 5.74888 7.1752 5.74888 6.7668C5.74888 6.25879 6.17745 5.84375 6.70312 5.84375H8.20982C8.58482 5.84375 8.94308 5.96328 9.23437 6.1791C9.34152 6.25879 9.48884 6.24551 9.58259 6.15254L9.96094 5.7707C10.0748 5.65781 10.0614 5.47188 9.93415 5.37227C9.44531 4.98711 8.84263 4.77793 8.20647 4.77793H8.03571V3.4498C8.03571 3.30371 7.91518 3.18418 7.76786 3.18418H7.23214C7.08482 3.18418 6.96429 3.30371 6.96429 3.4498V4.77793H6.70312C5.58817 4.77793 4.67745 5.66777 4.67745 6.76348C4.67745 7.64668 5.28348 8.43027 6.14732 8.67266L8.55804 9.34336C8.96317 9.45625 9.24777 9.82148 9.24777 10.2299C9.24777 10.7379 8.8192 11.1529 8.29353 11.1529H6.78683C6.41183 11.1529 6.05357 11.0334 5.76228 10.8176C5.65513 10.7379 5.50781 10.7512 5.41406 10.8441L5.03571 11.226C4.92187 11.3389 4.93527 11.5248 5.0625 11.6244C5.55134 12.0096 6.15402 12.2188 6.79018 12.2188H6.96429V13.5469C6.96429 13.693 7.08482 13.8125 7.23214 13.8125H7.76786C7.91518 13.8125 8.03571 13.693 8.03571 13.5469V12.2188H8.29688C9.41183 12.2188 10.3225 11.3289 10.3225 10.2332C10.3192 9.35 9.71652 8.56641 8.84933 8.32402ZM13.3929 1.0625H1.60714C0.719866 1.0625 0 1.77637 0 2.65625V14.3438C0 15.2236 0.719866 15.9375 1.60714 15.9375H13.3929C14.2801 15.9375 15 15.2236 15 14.3438V2.65625C15 1.77637 14.2801 1.0625 13.3929 1.0625ZM13.9286 14.3438C13.9286 14.6359 13.6875 14.875 13.3929 14.875H1.60714C1.3125 14.875 1.07143 14.6359 1.07143 14.3438V2.65625C1.07143 2.36406 1.3125 2.125 1.60714 2.125H13.3929C13.6875 2.125 13.9286 2.36406 13.9286 2.65625V14.3438Z" fill="black"/>
</svg>
