<svg width="35" height="36" viewBox="0 0 35 36" fill="none" xmlns="http://www.w3.org/2000/svg">
<path d="M20.6484 17.5859L15.0234 16.0078C14.0781 15.7422 13.4141 14.8828 13.4141 13.9219C13.4141 12.7266 14.4141 11.75 15.6406 11.75H19.1562C20.0312 11.75 20.8672 12.0312 21.5469 12.5391C21.7969 12.7266 22.1406 12.6953 22.3594 12.4766L23.2422 11.5781C23.5078 11.3125 23.4766 10.875 23.1797 10.6406C22.0391 9.73438 20.6328 9.24219 19.1484 9.24219H18.75V6.11719C18.75 5.77344 18.4688 5.49219 18.125 5.49219H16.875C16.5312 5.49219 16.25 5.77344 16.25 6.11719V9.24219H15.6406C13.0391 9.24219 10.9141 11.3359 10.9141 13.9141C10.9141 15.9922 12.3281 17.8359 14.3438 18.4062L19.9688 19.9844C20.9141 20.25 21.5781 21.1094 21.5781 22.0703C21.5781 23.2656 20.5781 24.2422 19.3516 24.2422H15.8359C14.9609 24.2422 14.125 23.9609 13.4453 23.4531C13.1953 23.2656 12.8516 23.2969 12.6328 23.5156L11.75 24.4141C11.4844 24.6797 11.5156 25.1172 11.8125 25.3516C12.9531 26.2578 14.3594 26.75 15.8438 26.75H16.25V29.875C16.25 30.2188 16.5312 30.5 16.875 30.5H18.125C18.4688 30.5 18.75 30.2188 18.75 29.875V26.75H19.3594C21.9609 26.75 24.0859 24.6562 24.0859 22.0781C24.0781 20 22.6719 18.1562 20.6484 17.5859ZM31.25 0.5H3.75C1.67969 0.5 0 2.17969 0 4.25V31.75C0 33.8203 1.67969 35.5 3.75 35.5H31.25C33.3203 35.5 35 33.8203 35 31.75V4.25C35 2.17969 33.3203 0.5 31.25 0.5ZM32.5 31.75C32.5 32.4375 31.9375 33 31.25 33H3.75C3.0625 33 2.5 32.4375 2.5 31.75V4.25C2.5 3.5625 3.0625 3 3.75 3H31.25C31.9375 3 32.5 3.5625 32.5 4.25V31.75Z" fill="#F6C762"/>
</svg>
