<svg width="15" height="17" viewBox="0 0 15 17" fill="none" xmlns="http://www.w3.org/2000/svg">
<path d="M13.3929 1.0625H1.60714C0.719866 1.0625 0 1.77637 0 2.65625V14.3438C0 15.2236 0.719866 15.9375 1.60714 15.9375H13.3929C14.2801 15.9375 15 15.2236 15 14.3438V2.65625C15 1.77637 14.2801 1.0625 13.3929 1.0625ZM13.9286 14.3438C13.9286 14.6359 13.6875 14.875 13.3929 14.875H1.60714C1.3125 14.875 1.07143 14.6359 1.07143 14.3438V2.65625C1.07143 2.36406 1.3125 2.125 1.60714 2.125H13.3929C13.6875 2.125 13.9286 2.36406 13.9286 2.65625V14.3438ZM6.69643 5.3125H5.35714V4.25C5.35714 4.03086 5.17634 3.85156 4.95536 3.85156H4.6875C4.46652 3.85156 4.28571 4.03086 4.28571 4.25V5.3125H2.94643C2.50446 5.3125 2.14286 5.67109 2.14286 6.10938V7.70312C2.14286 8.14141 2.50446 8.5 2.94643 8.5H4.28571V12.3516C4.28571 12.5707 4.46652 12.75 4.6875 12.75H4.95536C5.17634 12.75 5.35714 12.5707 5.35714 12.3516V8.5H6.69643C7.13839 8.5 7.5 8.14141 7.5 7.70312V6.10938C7.5 5.67109 7.13839 5.3125 6.69643 5.3125ZM6.42857 7.4375H3.21429V6.375H6.42857V7.4375ZM12.0536 8.5H10.7143V4.25C10.7143 4.03086 10.5335 3.85156 10.3125 3.85156H10.0446C9.82366 3.85156 9.64286 4.03086 9.64286 4.25V8.5H8.30357C7.86161 8.5 7.5 8.85859 7.5 9.29688V10.8906C7.5 11.3289 7.86161 11.6875 8.30357 11.6875H9.64286V12.3516C9.64286 12.5707 9.82366 12.75 10.0446 12.75H10.3125C10.5335 12.75 10.7143 12.5707 10.7143 12.3516V11.6875H12.0536C12.4955 11.6875 12.8571 11.3289 12.8571 10.8906V9.29688C12.8571 8.85859 12.4955 8.5 12.0536 8.5ZM11.7857 10.625H8.57143V9.5625H11.7857V10.625Z" fill="black"/>
</svg>
