<svg xmlns="http://www.w3.org/2000/svg" width="20" height="16" viewBox="0 0 20 16" fill="none">
<path d="M19.13 4.81219L10.8488 2.13469C10.2922 1.955 9.70813 1.955 9.15156 2.13469L0.870313 4.81219C0.341875 4.98313 0 5.44938 0 6C0 6.55063 0.341875 7.01688 0.87 7.18781L1.79844 7.48781C1.69531 7.68094 1.61906 7.88875 1.56938 8.10656C1.23531 8.26844 1 8.60375 1 9C1 9.39781 1.23656 9.735 1.57281 9.89594L1.00875 13.3916C0.958437 13.7038 1.13094 14 1.36312 14H2.63656C2.86875 14 3.04156 13.7038 2.99094 13.3916L2.42719 9.89594C2.76344 9.735 3 9.39781 3 9C3 8.66875 2.82844 8.38938 2.58031 8.20719C2.62687 8.06156 2.69906 7.93031 2.78562 7.80688L4.45656 8.34719L4 12C4 13.1047 6.68625 14 10 14C13.3138 14 16 13.1047 16 12L15.5434 8.34719L19.13 7.1875C19.6581 7.01688 20 6.55063 20 6C20 5.44938 19.6581 4.98313 19.13 4.81219ZM14.9838 11.9331C14.6475 12.2872 12.9388 13 10 13C7.06125 13 5.3525 12.2872 5.01625 11.9331L5.42531 8.66031L9.15156 9.865C9.23281 9.89125 9.95531 10.1534 10.8488 9.865L14.575 8.66031L14.9838 11.9331ZM18.8213 6.23688L10.54 8.91438C10.1866 9.02875 9.81344 9.02875 9.46 8.91438L3.97031 7.13938L10.0919 5.99125C10.3634 5.94063 10.5422 5.67938 10.4913 5.40781C10.4406 5.13594 10.1737 4.95813 9.90812 5.00875L3.54 6.2025C3.1525 6.275 2.80531 6.44156 2.50625 6.66594L1.17844 6.23656C0.933125 6.15688 0.945312 5.83844 1.17844 5.76313L9.45969 3.08563C9.93156 2.93313 10.3297 3.01781 10.5397 3.08563L18.8209 5.76313C19.0519 5.83781 19.0681 6.15688 18.8213 6.23688Z" fill="black"/>
</svg>